<svg id="svg" xmlns="http://www.w3.org/2000/svg" xmlns:xlink="http://www.w3.org/1999/xlink" width="400" height="159.0625" viewBox="0, 0, 400,159.0625" version="1.1"><g id="svgg"><path id="path0" d="M57.208 4.749 C 57.094 4.879,57.000 5.135,57.000 5.316 C 57.000 5.498,56.929 5.691,56.843 5.744 C 56.757 5.797,56.636 6.177,56.574 6.587 C 56.513 6.998,56.396 7.333,56.314 7.333 C 56.233 7.333,56.167 7.558,56.167 7.833 C 56.167 8.108,56.092 8.333,56.000 8.333 C 55.908 8.333,55.833 8.484,55.833 8.669 C 55.833 8.854,55.767 9.135,55.686 9.294 C 55.605 9.453,55.446 9.808,55.333 10.083 C 55.220 10.358,55.062 10.714,54.981 10.873 C 54.900 11.032,54.833 11.313,54.833 11.498 C 54.833 11.682,54.758 11.833,54.667 11.833 C 54.575 11.833,54.500 12.016,54.500 12.240 C 54.500 12.464,54.432 12.689,54.349 12.740 C 54.266 12.792,54.146 13.209,54.083 13.667 C 54.020 14.125,53.901 14.500,53.818 14.500 C 53.735 14.500,53.667 14.646,53.667 14.823 C 53.667 15.001,53.592 15.193,53.500 15.250 C 53.408 15.307,53.333 15.536,53.333 15.760 C 53.333 15.984,53.258 16.167,53.167 16.167 C 53.075 16.167,53.000 16.354,53.000 16.583 C 53.000 16.813,52.925 17.000,52.833 17.000 C 52.742 17.000,52.667 17.225,52.667 17.500 C 52.667 17.775,52.592 18.000,52.500 18.000 C 52.408 18.000,52.333 18.225,52.333 18.500 C 52.333 18.775,52.258 19.000,52.167 19.000 C 52.075 19.000,52.000 19.146,52.000 19.323 C 52.000 19.501,51.927 19.692,51.838 19.747 C 51.749 19.802,51.627 20.219,51.567 20.674 C 51.506 21.128,51.392 21.500,51.312 21.500 C 51.232 21.500,51.167 21.688,51.167 21.917 C 51.167 22.146,51.092 22.333,51.000 22.333 C 50.908 22.333,50.833 22.558,50.833 22.833 C 50.833 23.108,50.758 23.333,50.667 23.333 C 50.575 23.333,50.500 23.447,50.500 23.586 C 50.500 23.724,50.425 23.987,50.333 24.169 C 50.242 24.351,50.092 24.649,50.000 24.831 C 49.908 25.013,49.833 25.313,49.833 25.498 C 49.833 25.682,49.758 25.833,49.667 25.833 C 49.575 25.833,49.500 26.016,49.500 26.240 C 49.500 26.464,49.435 26.687,49.355 26.736 C 49.276 26.786,49.162 27.131,49.102 27.504 C 49.042 27.876,48.920 28.328,48.830 28.507 C 48.740 28.687,48.592 28.982,48.500 29.164 C 48.408 29.346,48.333 29.646,48.333 29.831 C 48.333 30.016,48.258 30.167,48.167 30.167 C 48.075 30.167,48.000 30.392,48.000 30.667 C 48.000 30.942,47.925 31.167,47.833 31.167 C 47.742 31.167,47.667 31.354,47.667 31.583 C 47.667 31.813,47.592 32.000,47.500 32.000 C 47.408 32.000,47.333 32.175,47.333 32.389 C 47.333 32.603,47.284 32.828,47.223 32.888 C 47.031 33.080,46.500 34.720,46.500 35.119 C 46.500 35.328,46.425 35.500,46.333 35.500 C 46.242 35.500,46.167 35.688,46.167 35.917 C 46.167 36.146,46.092 36.333,46.000 36.333 C 45.908 36.333,45.833 36.484,45.833 36.669 C 45.833 36.854,45.747 37.172,45.641 37.377 C 45.226 38.180,45.167 38.340,45.167 38.664 C 45.167 38.849,45.092 39.000,45.000 39.000 C 44.908 39.000,44.833 39.183,44.833 39.407 C 44.833 39.631,44.758 39.860,44.667 39.917 C 44.575 39.973,44.500 40.203,44.500 40.427 C 44.500 40.650,44.434 40.833,44.352 40.833 C 44.271 40.833,44.154 41.169,44.093 41.579 C 44.031 41.990,43.910 42.369,43.824 42.423 C 43.737 42.476,43.667 42.703,43.667 42.927 C 43.667 43.150,43.592 43.333,43.500 43.333 C 43.408 43.333,43.333 43.516,43.333 43.740 C 43.333 43.964,43.258 44.193,43.167 44.250 C 43.075 44.307,43.000 44.536,43.000 44.760 C 43.000 44.984,42.925 45.167,42.833 45.167 C 42.742 45.167,42.667 45.392,42.667 45.667 C 42.667 45.942,42.592 46.167,42.500 46.167 C 42.408 46.167,42.333 46.280,42.333 46.419 C 42.333 46.558,42.261 46.801,42.172 46.961 C 41.926 47.402,41.500 48.804,41.500 49.172 C 41.500 49.353,41.425 49.500,41.333 49.500 C 41.242 49.500,41.167 49.725,41.167 50.000 C 41.167 50.275,41.092 50.500,41.000 50.500 C 40.908 50.500,40.833 50.614,40.833 50.752 C 40.833 50.891,40.758 51.154,40.667 51.336 C 40.575 51.518,40.425 51.816,40.333 51.998 C 40.242 52.180,40.167 52.480,40.167 52.664 C 40.167 52.849,40.092 53.000,40.000 53.000 C 39.908 53.000,39.833 53.183,39.833 53.407 C 39.833 53.631,39.758 53.860,39.667 53.917 C 39.575 53.973,39.500 54.198,39.500 54.417 C 39.500 54.635,39.429 54.857,39.343 54.911 C 39.257 54.964,39.136 55.344,39.074 55.754 C 39.013 56.164,38.896 56.500,38.814 56.500 C 38.733 56.500,38.667 56.688,38.667 56.917 C 38.667 57.146,38.592 57.333,38.500 57.333 C 38.408 57.333,38.333 57.558,38.333 57.833 C 38.333 58.108,38.258 58.333,38.167 58.333 C 38.075 58.333,38.000 58.521,38.000 58.750 C 38.000 58.979,37.925 59.167,37.833 59.167 C 37.742 59.167,37.667 59.318,37.667 59.502 C 37.667 59.687,37.600 59.968,37.519 60.127 C 37.016 61.117,36.500 62.700,36.500 63.256 C 36.500 63.482,36.425 63.667,36.333 63.667 C 36.242 63.667,36.167 63.780,36.167 63.919 C 36.167 64.058,36.092 64.320,36.000 64.502 C 35.908 64.684,35.758 64.982,35.667 65.164 C 35.575 65.346,35.500 65.646,35.500 65.831 C 35.500 66.016,35.425 66.167,35.333 66.167 C 35.242 66.167,35.167 66.354,35.167 66.583 C 35.167 66.813,35.092 67.000,35.000 67.000 C 34.908 67.000,34.833 67.225,34.833 67.500 C 34.833 67.775,34.758 68.000,34.667 68.000 C 34.575 68.000,34.500 68.183,34.500 68.407 C 34.500 68.631,34.429 68.857,34.343 68.911 C 34.257 68.964,34.136 69.344,34.074 69.754 C 34.013 70.164,33.896 70.500,33.814 70.500 C 33.733 70.500,33.667 70.683,33.667 70.907 C 33.667 71.131,33.592 71.360,33.500 71.417 C 33.408 71.473,33.333 71.703,33.333 71.927 C 33.333 72.150,33.258 72.333,33.167 72.333 C 33.075 72.333,33.000 72.558,33.000 72.833 C 33.000 73.108,32.925 73.333,32.833 73.333 C 32.742 73.333,32.667 73.447,32.667 73.586 C 32.667 73.724,32.592 73.987,32.500 74.169 C 32.408 74.351,32.258 74.649,32.167 74.831 C 32.075 75.013,32.000 75.298,32.000 75.464 C 32.000 75.631,31.926 75.841,31.835 75.932 C 31.744 76.023,31.621 76.450,31.562 76.882 L 31.455 77.667 54.394 77.667 L 77.333 77.667 77.333 41.083 L 77.333 4.500 67.375 4.506 C 58.988 4.512,57.384 4.550,57.208 4.749 M81.500 41.083 L 81.500 77.667 104.417 77.667 L 127.333 77.667 127.333 77.167 C 127.333 76.892,127.258 76.667,127.167 76.667 C 127.075 76.667,127.000 76.479,127.000 76.250 C 127.000 76.021,126.925 75.833,126.833 75.833 C 126.742 75.833,126.667 75.650,126.667 75.427 C 126.667 75.203,126.596 74.976,126.510 74.923 C 126.423 74.869,126.302 74.490,126.241 74.079 C 126.179 73.669,126.062 73.333,125.981 73.333 C 125.900 73.333,125.833 73.108,125.833 72.833 C 125.833 72.558,125.758 72.333,125.667 72.333 C 125.575 72.333,125.500 72.146,125.500 71.917 C 125.500 71.688,125.425 71.500,125.333 71.500 C 125.242 71.500,125.167 71.349,125.167 71.164 C 125.167 70.980,125.092 70.680,125.000 70.498 C 124.908 70.316,124.758 70.018,124.667 69.836 C 124.575 69.654,124.500 69.354,124.500 69.169 C 124.500 68.984,124.425 68.833,124.333 68.833 C 124.242 68.833,124.167 68.646,124.167 68.417 C 124.167 68.188,124.092 68.000,124.000 68.000 C 123.908 68.000,123.833 67.828,123.833 67.619 C 123.833 67.220,123.302 65.580,123.111 65.388 C 123.050 65.328,123.000 65.103,123.000 64.889 C 123.000 64.675,122.925 64.500,122.833 64.500 C 122.742 64.500,122.667 64.313,122.667 64.083 C 122.667 63.854,122.592 63.667,122.500 63.667 C 122.408 63.667,122.333 63.442,122.333 63.167 C 122.333 62.892,122.258 62.667,122.167 62.667 C 122.075 62.667,122.000 62.516,122.000 62.331 C 122.000 62.008,121.942 61.850,121.529 61.049 C 121.425 60.847,121.291 60.376,121.231 60.004 C 121.172 59.631,121.058 59.286,120.978 59.236 C 120.898 59.187,120.833 58.964,120.833 58.740 C 120.833 58.516,120.758 58.333,120.667 58.333 C 120.575 58.333,120.500 58.182,120.500 57.998 C 120.500 57.813,120.425 57.513,120.333 57.331 C 120.242 57.149,120.092 56.851,120.000 56.669 C 119.908 56.487,119.833 56.224,119.833 56.086 C 119.833 55.947,119.758 55.833,119.667 55.833 C 119.575 55.833,119.500 55.608,119.500 55.333 C 119.500 55.058,119.425 54.833,119.333 54.833 C 119.242 54.833,119.167 54.650,119.167 54.427 C 119.167 54.203,119.102 53.979,119.022 53.930 C 118.942 53.881,118.828 53.536,118.769 53.163 C 118.709 52.790,118.575 52.320,118.471 52.118 C 118.058 51.317,118.000 51.159,118.000 50.836 C 118.000 50.651,117.925 50.500,117.833 50.500 C 117.742 50.500,117.667 50.275,117.667 50.000 C 117.667 49.725,117.592 49.500,117.500 49.500 C 117.408 49.500,117.333 49.313,117.333 49.083 C 117.333 48.854,117.258 48.667,117.167 48.667 C 117.075 48.667,117.000 48.484,117.000 48.260 C 117.000 48.036,116.925 47.807,116.833 47.750 C 116.742 47.693,116.667 47.501,116.667 47.323 C 116.667 47.146,116.599 47.000,116.516 47.000 C 116.433 47.000,116.313 46.625,116.250 46.167 C 116.187 45.709,116.067 45.292,115.984 45.240 C 115.901 45.189,115.833 45.000,115.833 44.821 C 115.833 44.642,115.767 44.365,115.686 44.206 C 115.605 44.047,115.446 43.692,115.333 43.417 C 115.220 43.142,115.062 42.786,114.981 42.627 C 114.900 42.468,114.833 42.187,114.833 42.002 C 114.833 41.818,114.758 41.667,114.667 41.667 C 114.575 41.667,114.500 41.479,114.500 41.250 C 114.500 41.021,114.425 40.833,114.333 40.833 C 114.242 40.833,114.167 40.608,114.167 40.333 C 114.167 40.058,114.100 39.833,114.019 39.833 C 113.938 39.833,113.821 39.498,113.759 39.087 C 113.698 38.677,113.577 38.297,113.490 38.244 C 113.404 38.191,113.333 37.964,113.333 37.740 C 113.333 37.516,113.258 37.333,113.167 37.333 C 113.075 37.333,113.000 37.150,113.000 36.927 C 113.000 36.703,112.925 36.473,112.833 36.417 C 112.742 36.360,112.667 36.131,112.667 35.907 C 112.667 35.683,112.592 35.500,112.500 35.500 C 112.408 35.500,112.333 35.349,112.333 35.164 C 112.333 34.980,112.258 34.680,112.167 34.498 C 112.075 34.316,111.925 34.018,111.833 33.836 C 111.742 33.654,111.667 33.391,111.667 33.252 C 111.667 33.114,111.601 33.000,111.521 33.000 C 111.442 33.000,111.327 32.628,111.267 32.174 C 111.206 31.719,111.084 31.302,110.995 31.247 C 110.906 31.192,110.833 31.000,110.833 30.821 C 110.833 30.507,110.773 30.344,110.359 29.544 C 110.253 29.339,110.167 29.058,110.167 28.919 C 110.167 28.780,110.092 28.667,110.000 28.667 C 109.908 28.667,109.833 28.442,109.833 28.167 C 109.833 27.892,109.758 27.667,109.667 27.667 C 109.575 27.667,109.500 27.442,109.500 27.167 C 109.500 26.892,109.425 26.667,109.333 26.667 C 109.242 26.667,109.167 26.479,109.167 26.250 C 109.167 26.021,109.100 25.833,109.019 25.833 C 108.938 25.833,108.821 25.498,108.759 25.087 C 108.698 24.677,108.577 24.297,108.490 24.244 C 108.404 24.191,108.333 23.964,108.333 23.740 C 108.333 23.516,108.258 23.333,108.167 23.333 C 108.075 23.333,108.000 23.108,108.000 22.833 C 108.000 22.558,107.925 22.333,107.833 22.333 C 107.742 22.333,107.667 22.146,107.667 21.917 C 107.667 21.688,107.592 21.500,107.500 21.500 C 107.408 21.500,107.333 21.317,107.333 21.093 C 107.333 20.869,107.258 20.640,107.167 20.583 C 107.075 20.527,107.000 20.335,107.000 20.157 C 107.000 19.979,106.925 19.833,106.833 19.833 C 106.742 19.833,106.667 19.646,106.667 19.417 C 106.667 19.188,106.602 19.000,106.523 19.000 C 106.443 19.000,106.335 18.681,106.281 18.292 C 106.192 17.644,105.692 16.173,105.318 15.461 C 105.235 15.301,105.167 15.020,105.167 14.836 C 105.167 14.651,105.092 14.500,105.000 14.500 C 104.908 14.500,104.833 14.313,104.833 14.083 C 104.833 13.854,104.758 13.667,104.667 13.667 C 104.575 13.667,104.500 13.442,104.500 13.167 C 104.500 12.892,104.425 12.667,104.333 12.667 C 104.242 12.667,104.167 12.479,104.167 12.250 C 104.167 12.021,104.100 11.833,104.019 11.833 C 103.938 11.833,103.821 11.498,103.759 11.087 C 103.698 10.677,103.577 10.297,103.490 10.244 C 103.404 10.191,103.333 9.968,103.333 9.750 C 103.333 9.532,103.258 9.307,103.167 9.250 C 103.075 9.193,103.000 8.964,103.000 8.740 C 103.000 8.516,102.925 8.333,102.833 8.333 C 102.742 8.333,102.667 8.182,102.667 7.998 C 102.667 7.674,102.607 7.513,102.193 6.711 C 102.087 6.506,102.000 6.224,102.000 6.086 C 102.000 5.947,101.925 5.833,101.833 5.833 C 101.742 5.833,101.667 5.640,101.667 5.405 C 101.667 4.468,102.027 4.500,91.345 4.500 L 81.500 4.500 81.500 41.083 M167.542 4.610 C 167.268 4.721,167.232 76.833,167.506 77.344 C 167.777 77.851,213.223 77.851,213.494 77.344 C 213.681 76.995,213.752 5.249,213.566 4.764 C 213.467 4.506,168.175 4.355,167.542 4.610 M217.375 41.042 L 217.417 77.583 241.000 77.583 L 264.583 77.583 264.530 77.093 C 264.501 76.823,264.350 76.486,264.195 76.343 C 264.039 76.200,263.694 75.746,263.427 75.333 C 262.918 74.545,262.068 73.667,261.816 73.667 C 261.734 73.667,261.667 73.550,261.667 73.408 C 261.667 73.060,257.970 69.438,256.574 68.417 C 256.323 68.233,255.852 67.840,255.526 67.542 C 255.201 67.244,254.871 67.000,254.793 67.000 C 254.715 67.000,254.464 66.813,254.235 66.583 C 254.006 66.354,253.726 66.167,253.613 66.167 C 253.499 66.167,253.299 66.017,253.167 65.833 C 253.035 65.650,252.810 65.500,252.667 65.500 C 252.524 65.500,252.299 65.350,252.167 65.167 C 252.035 64.983,251.821 64.833,251.691 64.833 C 251.562 64.833,251.334 64.701,251.186 64.539 C 251.038 64.378,250.617 64.096,250.250 63.914 C 249.883 63.732,249.558 63.527,249.528 63.458 C 249.497 63.390,249.328 63.333,249.153 63.333 C 248.977 63.333,248.833 63.276,248.833 63.206 C 248.833 63.136,248.539 62.897,248.179 62.674 L 247.525 62.270 248.179 61.635 C 248.539 61.286,248.898 61.000,248.977 61.000 C 249.092 61.000,250.445 59.711,251.417 58.676 C 251.508 58.579,251.811 58.293,252.090 58.041 C 252.368 57.789,252.778 57.321,253.001 57.000 C 253.224 56.679,253.483 56.326,253.578 56.214 C 254.078 55.626,254.167 55.506,254.167 55.422 C 254.167 55.372,254.392 55.095,254.667 54.807 C 254.942 54.519,255.167 54.217,255.167 54.135 C 255.167 54.053,255.305 53.837,255.475 53.655 C 255.645 53.473,255.999 52.895,256.262 52.370 C 256.524 51.846,256.798 51.392,256.870 51.361 C 256.941 51.331,257.000 51.168,257.000 51.000 C 257.000 50.832,257.056 50.669,257.125 50.639 C 257.333 50.547,258.000 49.158,258.000 48.818 C 258.000 48.643,258.057 48.500,258.126 48.500 C 258.300 48.500,258.623 47.711,258.759 46.956 C 258.820 46.612,258.938 46.289,259.019 46.238 C 259.100 46.188,259.167 45.926,259.167 45.657 C 259.167 45.387,259.242 45.167,259.333 45.167 C 259.425 45.167,259.500 44.946,259.500 44.677 C 259.500 44.407,259.575 44.140,259.667 44.083 C 259.758 44.027,259.833 43.685,259.833 43.323 C 259.833 42.962,259.908 42.667,260.000 42.667 C 260.092 42.667,260.167 42.269,260.167 41.783 C 260.167 41.297,260.243 40.823,260.337 40.730 C 260.569 40.498,260.568 31.939,260.336 31.862 C 260.243 31.831,260.167 31.404,260.167 30.913 C 260.167 30.421,260.092 29.973,260.000 29.917 C 259.908 29.860,259.833 29.556,259.833 29.240 C 259.833 28.925,259.758 28.667,259.667 28.667 C 259.575 28.667,259.500 28.367,259.500 28.000 C 259.500 27.633,259.425 27.333,259.333 27.333 C 259.242 27.333,259.167 27.113,259.167 26.843 C 259.167 26.574,259.098 26.311,259.015 26.259 C 258.931 26.207,258.809 25.849,258.744 25.464 C 258.627 24.771,258.570 24.607,258.193 23.877 C 258.087 23.672,258.000 23.391,258.000 23.252 C 258.000 23.114,257.925 23.000,257.833 23.000 C 257.742 23.000,257.667 22.850,257.667 22.667 C 257.667 22.483,257.592 22.333,257.500 22.333 C 257.408 22.333,257.333 22.183,257.333 22.000 C 257.333 21.817,257.258 21.667,257.167 21.667 C 257.075 21.667,257.000 21.554,257.000 21.417 C 257.000 21.279,256.925 21.167,256.833 21.167 C 256.742 21.167,256.667 21.023,256.667 20.847 C 256.667 20.672,256.610 20.503,256.542 20.472 C 256.473 20.442,256.268 20.117,256.086 19.750 C 255.904 19.383,255.622 18.962,255.461 18.814 C 255.299 18.666,255.167 18.449,255.167 18.333 C 255.167 18.217,255.035 18.000,254.875 17.851 C 254.715 17.701,254.508 17.461,254.417 17.318 C 253.857 16.442,252.989 15.353,252.381 14.764 C 251.995 14.390,251.602 14.008,251.508 13.917 C 251.413 13.825,251.054 13.447,250.710 13.077 C 250.365 12.707,249.785 12.182,249.420 11.911 C 249.056 11.639,248.538 11.210,248.271 10.958 C 248.003 10.706,247.699 10.500,247.595 10.500 C 247.492 10.500,247.299 10.350,247.167 10.167 C 247.035 9.983,246.827 9.833,246.706 9.833 C 246.585 9.833,246.322 9.680,246.121 9.494 C 245.921 9.307,245.586 9.111,245.378 9.059 C 245.170 9.007,245.000 8.897,245.000 8.815 C 245.000 8.734,244.887 8.667,244.750 8.667 C 244.612 8.667,244.500 8.592,244.500 8.500 C 244.500 8.408,244.350 8.333,244.167 8.333 C 243.983 8.333,243.833 8.272,243.833 8.198 C 243.833 8.123,243.571 7.959,243.250 7.833 C 242.929 7.707,242.667 7.543,242.667 7.469 C 242.667 7.394,242.553 7.333,242.414 7.333 C 242.276 7.333,242.032 7.265,241.873 7.181 C 241.095 6.770,240.324 6.500,239.933 6.500 C 239.695 6.500,239.500 6.425,239.500 6.333 C 239.500 6.242,239.313 6.167,239.083 6.167 C 238.854 6.167,238.667 6.092,238.667 6.000 C 238.667 5.908,238.442 5.833,238.167 5.833 C 237.892 5.833,237.667 5.758,237.667 5.667 C 237.667 5.575,237.367 5.500,237.000 5.500 C 236.633 5.500,236.333 5.425,236.333 5.333 C 236.333 5.242,236.038 5.167,235.677 5.167 C 235.315 5.167,234.973 5.092,234.917 5.000 C 234.860 4.908,234.410 4.833,233.917 4.833 C 233.423 4.833,232.973 4.758,232.917 4.667 C 232.850 4.559,230.054 4.500,225.073 4.500 L 217.333 4.500 217.375 41.042 M289.875 41.042 L 289.917 77.583 312.875 77.626 L 335.833 77.668 335.833 41.084 L 335.833 4.500 312.833 4.500 L 289.833 4.500 289.875 41.042 M339.833 41.083 L 339.833 77.667 363.417 77.667 L 387.000 77.667 387.000 77.167 C 387.000 76.892,386.925 76.667,386.833 76.667 C 386.742 76.667,386.667 76.586,386.667 76.488 C 386.667 76.390,386.573 76.205,386.458 76.077 C 386.130 75.711,385.937 75.459,385.505 74.833 C 385.283 74.512,384.959 74.137,384.785 74.000 C 384.610 73.862,384.306 73.569,384.109 73.348 C 382.799 71.882,379.112 68.333,378.899 68.333 C 378.845 68.333,378.590 68.108,378.333 67.833 C 378.076 67.558,377.784 67.333,377.683 67.333 C 377.582 67.333,377.500 67.258,377.500 67.167 C 377.500 67.075,377.387 67.000,377.250 67.000 C 377.113 67.000,377.000 66.941,377.000 66.869 C 377.000 66.797,376.756 66.595,376.458 66.419 C 376.160 66.244,375.771 65.965,375.594 65.800 C 375.416 65.635,375.189 65.500,375.089 65.500 C 374.989 65.500,374.799 65.350,374.667 65.167 C 374.535 64.983,374.327 64.833,374.206 64.833 C 374.085 64.833,373.823 64.682,373.625 64.497 C 373.426 64.311,372.979 64.034,372.632 63.881 C 372.284 63.728,372.000 63.542,372.000 63.468 C 372.000 63.394,371.850 63.333,371.667 63.333 C 371.483 63.333,371.333 63.258,371.333 63.167 C 371.333 63.075,371.221 63.000,371.083 63.000 C 370.946 63.000,370.833 62.943,370.833 62.874 C 370.833 62.805,370.594 62.642,370.302 62.513 L 369.770 62.277 370.156 62.021 C 370.368 61.880,370.796 61.518,371.107 61.216 C 371.418 60.914,371.735 60.667,371.810 60.667 C 372.139 60.667,375.676 56.878,376.403 55.747 C 376.579 55.474,376.860 55.129,377.028 54.980 C 377.196 54.832,377.333 54.605,377.333 54.476 C 377.333 54.346,377.483 54.132,377.667 54.000 C 377.850 53.868,378.000 53.705,378.000 53.637 C 378.000 53.570,378.188 53.239,378.417 52.901 C 378.646 52.563,378.833 52.147,378.833 51.977 C 378.833 51.806,378.900 51.667,378.981 51.667 C 379.062 51.667,379.171 51.535,379.223 51.375 C 379.276 51.215,379.509 50.763,379.743 50.371 C 379.976 49.978,380.167 49.547,380.167 49.412 C 380.167 49.277,380.242 49.167,380.333 49.167 C 380.425 49.167,380.500 49.017,380.500 48.833 C 380.500 48.650,380.575 48.500,380.667 48.500 C 380.758 48.500,380.833 48.354,380.833 48.177 C 380.833 47.999,380.906 47.808,380.995 47.753 C 381.084 47.698,381.206 47.281,381.267 46.826 C 381.327 46.372,381.442 46.000,381.521 46.000 C 381.601 46.000,381.667 45.817,381.667 45.593 C 381.667 45.369,381.742 45.140,381.833 45.083 C 381.925 45.027,382.000 44.722,382.000 44.407 C 382.000 44.091,382.075 43.833,382.167 43.833 C 382.258 43.833,382.333 43.538,382.333 43.177 C 382.333 42.815,382.408 42.473,382.500 42.417 C 382.592 42.360,382.667 41.910,382.667 41.417 C 382.667 40.923,382.742 40.473,382.833 40.417 C 382.937 40.353,383.000 38.807,383.000 36.333 C 383.000 33.860,382.937 32.314,382.833 32.250 C 382.742 32.193,382.667 31.701,382.667 31.157 C 382.667 30.608,382.592 30.167,382.500 30.167 C 382.408 30.167,382.333 29.829,382.333 29.417 C 382.333 29.004,382.258 28.667,382.167 28.667 C 382.075 28.667,382.000 28.404,382.000 28.083 C 382.000 27.762,381.925 27.500,381.833 27.500 C 381.742 27.500,381.667 27.279,381.667 27.010 C 381.667 26.740,381.602 26.479,381.522 26.430 C 381.442 26.381,381.328 26.036,381.269 25.663 C 381.209 25.290,381.095 24.857,381.015 24.701 C 380.935 24.545,380.712 24.060,380.518 23.625 C 379.912 22.261,379.425 21.253,379.328 21.167 C 379.277 21.121,379.021 20.654,378.760 20.130 C 378.498 19.605,378.145 19.027,377.975 18.845 C 377.805 18.663,377.667 18.447,377.667 18.365 C 377.667 18.283,377.442 17.981,377.167 17.693 C 376.892 17.405,376.667 17.128,376.667 17.078 C 376.667 16.974,376.427 16.673,375.875 16.083 C 375.669 15.862,375.500 15.608,375.500 15.517 C 375.500 15.426,375.194 15.067,374.821 14.718 C 374.447 14.369,374.053 13.984,373.946 13.862 C 373.386 13.228,372.257 12.167,372.143 12.167 C 372.070 12.167,371.794 11.954,371.527 11.693 C 371.261 11.433,370.790 11.041,370.480 10.823 C 370.170 10.604,369.771 10.292,369.594 10.130 C 369.416 9.967,369.206 9.833,369.128 9.833 C 369.050 9.833,368.822 9.680,368.621 9.494 C 368.421 9.307,368.070 9.107,367.842 9.050 C 367.614 8.993,367.280 8.808,367.099 8.640 C 366.918 8.471,366.678 8.333,366.566 8.333 C 366.453 8.333,366.336 8.274,366.306 8.202 C 366.252 8.076,365.276 7.581,363.634 6.849 C 363.204 6.657,362.660 6.500,362.426 6.500 C 362.192 6.500,362.000 6.425,362.000 6.333 C 362.000 6.242,361.817 6.167,361.593 6.167 C 361.369 6.167,361.140 6.092,361.083 6.000 C 361.027 5.908,360.802 5.833,360.583 5.833 C 360.365 5.833,360.140 5.758,360.083 5.667 C 360.027 5.575,359.722 5.500,359.407 5.500 C 359.091 5.500,358.833 5.425,358.833 5.333 C 358.833 5.242,358.496 5.167,358.083 5.167 C 357.671 5.167,357.333 5.092,357.333 5.000 C 357.333 4.908,356.925 4.833,356.427 4.833 C 355.928 4.833,355.473 4.758,355.417 4.667 C 355.350 4.559,352.554 4.500,347.573 4.500 L 339.833 4.500 339.833 41.083 M30.040 81.664 C 29.926 81.846,29.833 82.146,29.833 82.331 C 29.833 82.516,29.758 82.667,29.667 82.667 C 29.575 82.667,29.500 82.850,29.500 83.073 C 29.500 83.297,29.434 83.521,29.353 83.571 C 29.271 83.622,29.154 84.001,29.092 84.415 C 29.030 84.828,28.909 85.167,28.823 85.167 C 28.737 85.167,28.667 85.392,28.667 85.667 C 28.667 85.942,28.592 86.167,28.500 86.167 C 28.408 86.167,28.333 86.354,28.333 86.583 C 28.333 86.813,28.258 87.000,28.167 87.000 C 28.075 87.000,28.000 87.225,28.000 87.500 C 28.000 87.775,27.925 88.000,27.833 88.000 C 27.742 88.000,27.667 88.188,27.667 88.417 C 27.667 88.646,27.592 88.833,27.500 88.833 C 27.408 88.833,27.333 89.008,27.333 89.222 C 27.333 89.436,27.284 89.661,27.223 89.722 C 27.031 89.913,26.500 91.553,26.500 91.952 C 26.500 92.162,26.425 92.333,26.333 92.333 C 26.242 92.333,26.167 92.558,26.167 92.833 C 26.167 93.108,26.092 93.333,26.000 93.333 C 25.908 93.333,25.833 93.447,25.833 93.586 C 25.833 93.724,25.747 94.006,25.641 94.211 C 25.226 95.013,25.167 95.174,25.167 95.498 C 25.167 95.682,25.092 95.833,25.000 95.833 C 24.908 95.833,24.833 96.016,24.833 96.240 C 24.833 96.464,24.758 96.693,24.667 96.750 C 24.575 96.807,24.500 97.036,24.500 97.260 C 24.500 97.484,24.434 97.667,24.352 97.667 C 24.271 97.667,24.154 98.002,24.093 98.413 C 24.031 98.823,23.910 99.203,23.824 99.256 C 23.737 99.309,23.667 99.536,23.667 99.760 C 23.667 99.984,23.592 100.167,23.500 100.167 C 23.408 100.167,23.333 100.350,23.333 100.573 C 23.333 100.797,23.258 101.027,23.167 101.083 C 23.075 101.140,23.000 101.369,23.000 101.593 C 23.000 101.817,22.925 102.000,22.833 102.000 C 22.742 102.000,22.667 102.151,22.667 102.336 C 22.667 102.520,22.600 102.801,22.519 102.961 C 22.049 103.885,21.500 105.526,21.500 106.006 C 21.500 106.186,21.425 106.333,21.333 106.333 C 21.242 106.333,21.167 106.484,21.167 106.669 C 21.167 106.854,21.100 107.135,21.019 107.294 C 20.938 107.453,20.780 107.808,20.667 108.083 C 20.554 108.358,20.395 108.714,20.314 108.873 C 20.233 109.032,20.167 109.313,20.167 109.498 C 20.167 109.682,20.092 109.833,20.000 109.833 C 19.908 109.833,19.833 110.058,19.833 110.333 C 19.833 110.608,19.758 110.833,19.667 110.833 C 19.575 110.833,19.500 111.016,19.500 111.240 C 19.500 111.464,19.429 111.691,19.343 111.744 C 19.257 111.797,19.136 112.177,19.074 112.587 C 19.013 112.998,18.896 113.333,18.814 113.333 C 18.733 113.333,18.667 113.521,18.667 113.750 C 18.667 113.979,18.592 114.167,18.500 114.167 C 18.408 114.167,18.333 114.392,18.333 114.667 C 18.333 114.942,18.258 115.167,18.167 115.167 C 18.075 115.167,18.000 115.354,18.000 115.583 C 18.000 115.813,17.925 116.000,17.833 116.000 C 17.742 116.000,17.667 116.151,17.667 116.336 C 17.667 116.520,17.592 116.820,17.500 117.002 C 17.408 117.184,17.258 117.482,17.167 117.664 C 17.075 117.846,17.000 118.142,17.000 118.321 C 17.000 118.500,16.927 118.692,16.838 118.747 C 16.749 118.802,16.627 119.219,16.567 119.674 C 16.506 120.128,16.392 120.500,16.312 120.500 C 16.232 120.500,16.167 120.614,16.167 120.752 C 16.167 120.891,16.092 121.154,16.000 121.336 C 15.908 121.518,15.758 121.816,15.667 121.998 C 15.575 122.180,15.500 122.480,15.500 122.664 C 15.500 122.849,15.425 123.000,15.333 123.000 C 15.242 123.000,15.167 123.188,15.167 123.417 C 15.167 123.646,15.092 123.833,15.000 123.833 C 14.908 123.833,14.833 124.058,14.833 124.333 C 14.833 124.608,14.758 124.833,14.667 124.833 C 14.575 124.833,14.500 125.016,14.500 125.240 C 14.500 125.464,14.429 125.691,14.343 125.744 C 14.257 125.797,14.136 126.177,14.074 126.587 C 14.013 126.998,13.896 127.333,13.814 127.333 C 13.733 127.333,13.667 127.558,13.667 127.833 C 13.667 128.108,13.592 128.333,13.500 128.333 C 13.408 128.333,13.333 128.521,13.333 128.750 C 13.333 128.979,13.258 129.167,13.167 129.167 C 13.075 129.167,13.000 129.318,13.000 129.502 C 13.000 129.687,12.934 129.968,12.853 130.127 C 12.772 130.286,12.613 130.642,12.500 130.917 C 12.387 131.192,12.228 131.547,12.147 131.706 C 12.066 131.865,12.000 132.142,12.000 132.321 C 12.000 132.500,11.927 132.692,11.838 132.747 C 11.749 132.802,11.627 133.219,11.567 133.674 C 11.506 134.128,11.392 134.500,11.312 134.500 C 11.232 134.500,11.167 134.614,11.167 134.752 C 11.167 134.891,11.092 135.154,11.000 135.336 C 10.908 135.518,10.758 135.816,10.667 135.998 C 10.575 136.180,10.500 136.480,10.500 136.664 C 10.500 136.849,10.425 137.000,10.333 137.000 C 10.242 137.000,10.167 137.225,10.167 137.500 C 10.167 137.775,10.092 138.000,10.000 138.000 C 9.908 138.000,9.833 138.188,9.833 138.417 C 9.833 138.646,9.758 138.833,9.667 138.833 C 9.575 138.833,9.500 139.016,9.500 139.240 C 9.500 139.464,9.429 139.691,9.343 139.744 C 9.257 139.797,9.136 140.177,9.074 140.587 C 9.013 140.998,8.896 141.333,8.814 141.333 C 8.733 141.333,8.667 141.558,8.667 141.833 C 8.667 142.108,8.592 142.333,8.500 142.333 C 8.408 142.333,8.333 142.521,8.333 142.750 C 8.333 142.979,8.258 143.167,8.167 143.167 C 8.075 143.167,8.000 143.318,8.000 143.502 C 8.000 143.687,7.913 144.006,7.807 144.211 C 7.393 145.013,7.333 145.174,7.333 145.498 C 7.333 145.682,7.258 145.833,7.167 145.833 C 7.075 145.833,7.000 146.016,7.000 146.240 C 7.000 146.464,6.934 146.688,6.853 146.738 C 6.771 146.788,6.654 147.168,6.592 147.581 C 6.530 147.995,6.409 148.333,6.323 148.333 C 6.237 148.333,6.167 148.516,6.167 148.740 C 6.167 148.964,6.092 149.193,6.000 149.250 C 5.908 149.307,5.833 149.536,5.833 149.760 C 5.833 149.984,5.758 150.167,5.667 150.167 C 5.575 150.167,5.500 150.354,5.500 150.583 C 5.500 150.813,5.425 151.000,5.333 151.000 C 5.242 151.000,5.167 151.225,5.167 151.500 C 5.167 151.775,5.092 152.000,5.000 152.000 C 4.908 152.000,4.833 152.151,4.833 152.336 C 4.833 152.520,4.767 152.801,4.686 152.961 C 4.246 153.826,4.138 154.153,4.240 154.317 C 4.321 154.448,9.807 154.500,23.510 154.500 L 42.667 154.500 42.667 154.000 C 42.667 153.725,42.742 153.500,42.833 153.500 C 42.925 153.500,43.000 153.317,43.000 153.093 C 43.000 152.869,43.075 152.640,43.167 152.583 C 43.258 152.527,43.333 152.302,43.333 152.083 C 43.333 151.865,43.400 151.645,43.481 151.595 C 43.562 151.545,43.679 151.167,43.740 150.756 C 43.802 150.344,43.923 149.964,44.010 149.911 C 44.096 149.857,44.167 149.631,44.167 149.407 C 44.167 149.183,44.242 149.000,44.333 149.000 C 44.425 149.000,44.500 148.813,44.500 148.583 C 44.500 148.354,44.575 148.167,44.667 148.167 C 44.758 148.167,44.833 147.984,44.833 147.760 C 44.833 147.536,44.908 147.307,45.000 147.250 C 45.092 147.193,45.167 146.964,45.167 146.740 C 45.167 146.516,45.242 146.333,45.333 146.333 C 45.425 146.333,45.500 146.108,45.500 145.833 C 45.500 145.558,45.575 145.333,45.667 145.333 C 45.758 145.333,45.833 145.150,45.833 144.927 C 45.833 144.703,45.901 144.478,45.984 144.426 C 46.067 144.375,46.187 143.958,46.250 143.500 C 46.313 143.042,46.433 142.625,46.516 142.574 C 46.599 142.522,46.667 142.297,46.667 142.073 C 46.667 141.850,46.742 141.667,46.833 141.667 C 46.925 141.667,47.000 141.442,47.000 141.167 C 47.000 140.892,47.075 140.667,47.167 140.667 C 47.258 140.667,47.333 140.479,47.333 140.250 C 47.333 140.021,47.408 139.833,47.500 139.833 C 47.592 139.833,47.667 139.661,47.667 139.450 C 47.667 139.239,47.729 138.995,47.804 138.908 C 47.880 138.821,48.044 138.412,48.168 138.000 C 48.292 137.587,48.455 137.167,48.530 137.067 C 48.605 136.966,48.714 136.534,48.772 136.108 C 48.831 135.682,48.943 135.333,49.023 135.333 C 49.102 135.333,49.167 135.146,49.167 134.917 C 49.167 134.688,49.242 134.500,49.333 134.500 C 49.425 134.500,49.500 134.275,49.500 134.000 C 49.500 133.725,49.575 133.500,49.667 133.500 C 49.758 133.500,49.833 133.317,49.833 133.093 C 49.833 132.869,49.908 132.640,50.000 132.583 C 50.092 132.527,50.167 132.297,50.167 132.073 C 50.167 131.850,50.242 131.667,50.333 131.667 C 50.425 131.667,50.500 131.442,50.500 131.167 C 50.500 130.892,50.575 130.667,50.667 130.667 C 50.758 130.667,50.833 130.484,50.833 130.260 C 50.833 130.036,50.900 129.812,50.981 129.762 C 51.062 129.712,51.179 129.334,51.240 128.923 C 51.302 128.511,51.423 128.131,51.510 128.077 C 51.596 128.024,51.667 127.797,51.667 127.573 C 51.667 127.350,51.742 127.167,51.833 127.167 C 51.925 127.167,52.000 126.984,52.000 126.760 C 52.000 126.536,52.075 126.307,52.167 126.250 C 52.258 126.193,52.333 125.964,52.333 125.740 C 52.333 125.516,52.408 125.333,52.500 125.333 C 52.592 125.333,52.667 125.150,52.667 124.927 C 52.667 124.703,52.742 124.473,52.833 124.417 C 52.925 124.360,53.000 124.131,53.000 123.907 C 53.000 123.683,53.075 123.500,53.167 123.500 C 53.258 123.500,53.333 123.388,53.333 123.250 C 53.333 123.030,54.778 123.000,65.333 123.000 L 77.333 123.000 77.333 102.167 L 77.333 81.333 53.790 81.333 C 30.481 81.333,30.245 81.337,30.040 81.664 M81.500 102.167 L 81.500 123.000 93.500 123.000 C 104.056 123.000,105.500 123.030,105.500 123.250 C 105.500 123.388,105.575 123.500,105.667 123.500 C 105.758 123.500,105.833 123.725,105.833 124.000 C 105.833 124.275,105.908 124.500,106.000 124.500 C 106.092 124.500,106.167 124.683,106.167 124.907 C 106.167 125.131,106.242 125.360,106.333 125.417 C 106.425 125.473,106.500 125.663,106.500 125.837 C 106.500 126.153,106.882 127.445,107.164 128.083 C 107.245 128.267,107.407 128.717,107.523 129.083 C 107.639 129.450,107.794 129.821,107.867 129.908 C 107.940 129.995,108.000 130.202,108.000 130.367 C 108.000 130.532,108.075 130.667,108.167 130.667 C 108.258 130.667,108.333 130.892,108.333 131.167 C 108.333 131.442,108.408 131.667,108.500 131.667 C 108.592 131.667,108.667 131.892,108.667 132.167 C 108.667 132.442,108.735 132.667,108.818 132.667 C 108.901 132.667,109.020 133.042,109.083 133.500 C 109.146 133.958,109.266 134.375,109.349 134.426 C 109.432 134.478,109.500 134.703,109.500 134.927 C 109.500 135.150,109.575 135.333,109.667 135.333 C 109.758 135.333,109.833 135.558,109.833 135.833 C 109.833 136.108,109.908 136.333,110.000 136.333 C 110.092 136.333,110.167 136.516,110.167 136.740 C 110.167 136.964,110.242 137.193,110.333 137.250 C 110.425 137.307,110.500 137.536,110.500 137.760 C 110.500 137.984,110.575 138.167,110.667 138.167 C 110.758 138.167,110.833 138.350,110.833 138.573 C 110.833 138.797,110.908 139.027,111.000 139.083 C 111.092 139.140,111.167 139.369,111.167 139.593 C 111.167 139.817,111.235 140.000,111.318 140.000 C 111.401 140.000,111.520 140.375,111.583 140.833 C 111.646 141.292,111.766 141.667,111.849 141.667 C 111.932 141.667,112.000 141.850,112.000 142.073 C 112.000 142.297,112.075 142.527,112.167 142.583 C 112.258 142.640,112.333 142.869,112.333 143.093 C 112.333 143.317,112.408 143.500,112.500 143.500 C 112.592 143.500,112.667 143.725,112.667 144.000 C 112.667 144.275,112.742 144.500,112.833 144.500 C 112.925 144.500,113.000 144.688,113.000 144.917 C 113.000 145.146,113.075 145.333,113.167 145.333 C 113.258 145.333,113.333 145.558,113.333 145.833 C 113.333 146.108,113.408 146.333,113.500 146.333 C 113.592 146.333,113.667 146.558,113.667 146.833 C 113.667 147.108,113.742 147.333,113.833 147.333 C 113.925 147.333,114.000 147.481,114.000 147.661 C 114.000 147.984,114.379 149.270,114.664 149.917 C 114.745 150.100,114.907 150.550,115.023 150.917 C 115.139 151.283,115.294 151.655,115.367 151.742 C 115.440 151.829,115.500 152.073,115.500 152.283 C 115.500 152.494,115.575 152.667,115.667 152.667 C 115.758 152.667,115.833 152.854,115.833 153.083 C 115.833 153.313,115.908 153.500,116.000 153.500 C 116.092 153.500,116.167 153.725,116.167 154.000 L 116.167 154.500 135.333 154.500 L 154.500 154.500 154.500 154.083 C 154.500 153.854,154.425 153.667,154.333 153.667 C 154.242 153.667,154.167 153.517,154.167 153.333 C 154.167 153.150,154.092 153.000,154.000 153.000 C 153.908 153.000,153.833 152.815,153.833 152.589 C 153.833 152.034,153.317 150.450,152.814 149.461 C 152.733 149.301,152.667 149.020,152.667 148.836 C 152.667 148.651,152.592 148.500,152.500 148.500 C 152.408 148.500,152.333 148.313,152.333 148.083 C 152.333 147.854,152.258 147.667,152.167 147.667 C 152.075 147.667,152.000 147.442,152.000 147.167 C 152.000 146.892,151.925 146.667,151.833 146.667 C 151.742 146.667,151.667 146.479,151.667 146.250 C 151.667 146.021,151.592 145.833,151.500 145.833 C 151.408 145.833,151.333 145.627,151.332 145.375 C 151.332 145.123,151.219 144.702,151.082 144.439 C 150.945 144.177,150.833 143.825,150.833 143.657 C 150.833 143.490,150.758 143.307,150.667 143.250 C 150.575 143.193,150.500 142.964,150.500 142.740 C 150.500 142.516,150.425 142.333,150.333 142.333 C 150.242 142.333,150.167 142.150,150.167 141.927 C 150.167 141.703,150.092 141.473,150.000 141.417 C 149.908 141.360,149.833 141.131,149.833 140.907 C 149.833 140.683,149.758 140.500,149.667 140.500 C 149.575 140.500,149.500 140.354,149.500 140.177 C 149.500 139.999,149.425 139.807,149.333 139.750 C 149.242 139.693,149.167 139.464,149.167 139.240 C 149.167 139.016,149.092 138.833,149.000 138.833 C 148.908 138.833,148.833 138.686,148.833 138.506 C 148.833 138.026,148.284 136.385,147.814 135.461 C 147.733 135.301,147.667 135.020,147.667 134.836 C 147.667 134.651,147.592 134.500,147.500 134.500 C 147.408 134.500,147.333 134.275,147.333 134.000 C 147.333 133.725,147.258 133.500,147.167 133.500 C 147.075 133.500,147.000 133.313,147.000 133.083 C 147.000 132.854,146.925 132.667,146.833 132.667 C 146.742 132.667,146.667 132.484,146.667 132.260 C 146.667 132.036,146.596 131.809,146.510 131.756 C 146.423 131.703,146.302 131.323,146.241 130.913 C 146.179 130.502,146.062 130.167,145.981 130.167 C 145.900 130.167,145.833 129.942,145.833 129.667 C 145.833 129.392,145.758 129.167,145.667 129.167 C 145.575 129.167,145.500 128.979,145.500 128.750 C 145.500 128.521,145.425 128.333,145.333 128.333 C 145.242 128.333,145.167 128.108,145.167 127.833 C 145.167 127.558,145.092 127.333,145.000 127.333 C 144.908 127.333,144.833 127.188,144.833 127.010 C 144.833 126.832,144.758 126.640,144.667 126.583 C 144.575 126.527,144.500 126.335,144.500 126.157 C 144.500 125.979,144.425 125.833,144.333 125.833 C 144.242 125.833,144.167 125.608,144.167 125.333 C 144.167 125.058,144.092 124.833,144.000 124.833 C 143.908 124.833,143.833 124.667,143.833 124.463 C 143.833 124.016,142.968 121.439,142.792 121.361 C 142.723 121.331,142.667 121.124,142.667 120.903 C 142.667 120.681,142.592 120.500,142.500 120.500 C 142.408 120.500,142.333 120.275,142.333 120.000 C 142.333 119.725,142.258 119.500,142.167 119.500 C 142.075 119.500,142.000 119.313,142.000 119.083 C 142.000 118.854,141.925 118.667,141.833 118.667 C 141.742 118.667,141.667 118.442,141.667 118.167 C 141.667 117.892,141.596 117.667,141.510 117.667 C 141.424 117.667,141.303 117.328,141.241 116.915 C 141.179 116.501,141.062 116.122,140.981 116.071 C 140.900 116.021,140.833 115.797,140.833 115.573 C 140.833 115.350,140.758 115.167,140.667 115.167 C 140.575 115.167,140.500 115.016,140.500 114.831 C 140.500 114.646,140.434 114.365,140.353 114.206 C 140.272 114.047,140.113 113.692,140.000 113.417 C 139.887 113.142,139.728 112.786,139.647 112.627 C 139.566 112.468,139.500 112.187,139.500 112.002 C 139.500 111.818,139.425 111.667,139.333 111.667 C 139.242 111.667,139.167 111.479,139.167 111.250 C 139.167 111.021,139.101 110.833,139.021 110.833 C 138.942 110.833,138.827 110.461,138.767 110.007 C 138.706 109.552,138.599 109.145,138.528 109.101 C 138.457 109.057,138.296 108.641,138.170 108.177 C 138.043 107.713,137.878 107.333,137.803 107.333 C 137.728 107.333,137.667 107.108,137.667 106.833 C 137.667 106.558,137.592 106.333,137.500 106.333 C 137.408 106.333,137.333 106.146,137.333 105.917 C 137.333 105.688,137.258 105.500,137.167 105.500 C 137.075 105.500,137.000 105.349,137.000 105.164 C 137.000 104.980,136.925 104.680,136.833 104.498 C 136.742 104.316,136.593 104.020,136.503 103.841 C 136.413 103.661,136.291 103.210,136.231 102.837 C 136.172 102.464,136.058 102.119,135.978 102.070 C 135.898 102.021,135.833 101.797,135.833 101.573 C 135.833 101.350,135.758 101.167,135.667 101.167 C 135.575 101.167,135.500 101.016,135.500 100.831 C 135.500 100.646,135.425 100.346,135.333 100.164 C 135.242 99.982,135.092 99.684,135.000 99.502 C 134.908 99.320,134.833 99.020,134.833 98.836 C 134.833 98.651,134.758 98.500,134.667 98.500 C 134.575 98.500,134.500 98.313,134.500 98.083 C 134.500 97.854,134.425 97.667,134.333 97.667 C 134.242 97.667,134.167 97.442,134.167 97.167 C 134.167 96.892,134.100 96.667,134.019 96.667 C 133.938 96.667,133.821 96.331,133.759 95.921 C 133.698 95.510,133.577 95.131,133.490 95.077 C 133.404 95.024,133.333 94.797,133.333 94.573 C 133.333 94.350,133.258 94.167,133.167 94.167 C 133.075 94.167,133.000 93.979,133.000 93.750 C 133.000 93.521,132.925 93.333,132.833 93.333 C 132.742 93.333,132.667 93.108,132.667 92.833 C 132.667 92.558,132.592 92.333,132.500 92.333 C 132.408 92.333,132.333 92.182,132.333 91.998 C 132.333 91.813,132.258 91.513,132.167 91.331 C 132.075 91.149,131.925 90.851,131.833 90.669 C 131.742 90.487,131.667 90.224,131.667 90.086 C 131.667 89.947,131.601 89.833,131.521 89.833 C 131.442 89.833,131.327 89.461,131.267 89.007 C 131.206 88.552,131.084 88.135,130.995 88.080 C 130.906 88.025,130.833 87.834,130.833 87.655 C 130.833 87.475,130.767 87.199,130.686 87.039 C 130.605 86.880,130.446 86.525,130.333 86.250 C 130.220 85.975,130.062 85.620,129.981 85.461 C 129.900 85.301,129.833 85.020,129.833 84.836 C 129.833 84.651,129.758 84.500,129.667 84.500 C 129.575 84.500,129.500 84.317,129.500 84.093 C 129.500 83.869,129.425 83.640,129.333 83.583 C 129.242 83.527,129.167 83.297,129.167 83.073 C 129.167 82.850,129.092 82.667,129.000 82.667 C 128.908 82.667,128.833 82.512,128.833 82.322 C 128.833 81.240,131.074 81.333,104.994 81.333 L 81.500 81.333 81.500 102.167 M167.525 81.708 C 167.374 81.995,167.338 90.613,167.372 118.250 L 167.417 154.417 190.406 154.459 C 208.688 154.493,213.423 154.458,213.529 154.292 C 213.736 153.966,213.702 82.043,213.494 81.656 C 213.325 81.339,212.893 81.333,190.522 81.333 L 167.723 81.333 167.525 81.708 M289.945 81.444 C 289.884 81.505,289.833 97.968,289.833 118.028 L 289.833 154.500 312.834 154.500 L 335.834 154.500 335.792 117.958 L 335.750 81.417 312.903 81.374 C 300.338 81.351,290.006 81.382,289.945 81.444 M217.333 118.250 L 217.333 154.500 223.750 154.500 C 227.917 154.500,230.167 154.442,230.167 154.333 C 230.167 154.238,230.663 154.167,231.323 154.167 C 231.960 154.167,232.527 154.092,232.583 154.000 C 232.640 153.908,233.052 153.833,233.500 153.833 C 233.948 153.833,234.360 153.758,234.417 153.667 C 234.473 153.575,234.815 153.500,235.177 153.500 C 235.538 153.500,235.833 153.425,235.833 153.333 C 235.833 153.242,236.129 153.167,236.490 153.167 C 236.851 153.167,237.187 153.102,237.236 153.023 C 237.284 152.944,237.679 152.831,238.113 152.772 C 238.930 152.660,239.872 152.399,240.373 152.146 C 240.532 152.066,240.813 152.000,240.998 152.000 C 241.182 152.000,241.333 151.925,241.333 151.833 C 241.333 151.742,241.516 151.667,241.740 151.667 C 241.964 151.667,242.193 151.592,242.250 151.500 C 242.307 151.408,242.499 151.333,242.677 151.333 C 242.854 151.333,243.000 151.258,243.000 151.167 C 243.000 151.075,243.188 151.000,243.417 151.000 C 243.646 151.000,243.833 150.925,243.833 150.833 C 243.833 150.742,243.983 150.667,244.167 150.667 C 244.350 150.667,244.500 150.592,244.500 150.500 C 244.500 150.408,244.664 150.333,244.865 150.333 C 245.324 150.333,248.324 148.867,248.686 148.466 C 248.834 148.301,249.078 148.167,249.228 148.167 C 249.378 148.167,249.500 148.092,249.500 148.000 C 249.500 147.908,249.633 147.833,249.795 147.833 C 249.957 147.833,250.365 147.646,250.702 147.417 C 251.040 147.188,251.378 147.000,251.454 147.000 C 251.531 147.000,251.701 146.850,251.833 146.667 C 251.965 146.483,252.190 146.333,252.333 146.333 C 252.476 146.333,252.701 146.183,252.833 146.000 C 252.965 145.817,253.137 145.667,253.215 145.667 C 253.293 145.667,253.462 145.573,253.589 145.458 C 254.124 144.979,254.327 144.833,254.460 144.833 C 254.538 144.833,254.873 144.590,255.204 144.292 C 255.535 143.994,256.086 143.525,256.428 143.250 C 257.209 142.622,261.041 138.796,261.871 137.816 C 262.213 137.413,262.756 136.787,263.079 136.426 C 263.402 136.064,263.668 135.689,263.670 135.592 C 263.671 135.496,263.859 135.240,264.086 135.024 C 264.314 134.808,264.500 134.544,264.500 134.436 C 264.500 134.328,264.650 134.132,264.833 134.000 C 265.017 133.868,265.167 133.654,265.167 133.524 C 265.167 133.395,265.299 133.168,265.461 133.020 C 265.622 132.871,265.904 132.450,266.086 132.083 C 266.268 131.717,266.473 131.392,266.542 131.361 C 266.610 131.331,266.667 131.162,266.667 130.986 C 266.667 130.810,266.742 130.667,266.833 130.667 C 266.925 130.667,267.000 130.554,267.000 130.417 C 267.000 130.279,267.063 130.167,267.140 130.167 C 267.218 130.167,267.461 129.810,267.682 129.375 C 267.903 128.940,268.140 128.558,268.208 128.528 C 268.277 128.497,268.333 128.372,268.333 128.250 C 268.333 128.127,268.459 127.777,268.612 127.472 C 269.128 126.442,269.167 126.339,269.167 126.002 C 269.167 125.818,269.223 125.666,269.292 125.665 C 269.461 125.664,269.833 124.839,269.833 124.467 C 269.833 124.302,269.908 124.167,270.000 124.167 C 270.092 124.167,270.167 124.053,270.167 123.914 C 270.167 123.776,270.233 123.532,270.314 123.373 C 270.790 122.437,271.333 120.629,271.333 119.981 C 271.333 119.716,271.408 119.500,271.500 119.500 C 271.592 119.500,271.667 119.242,271.667 118.927 C 271.667 118.611,271.742 118.307,271.833 118.250 C 271.925 118.193,272.000 117.889,272.000 117.573 C 272.000 117.258,272.075 117.000,272.167 117.000 C 272.258 117.000,272.333 116.667,272.333 116.260 C 272.333 115.853,272.408 115.473,272.500 115.417 C 272.592 115.360,272.667 114.906,272.667 114.407 C 272.667 113.908,272.742 113.500,272.833 113.500 C 272.931 113.500,273.000 112.917,273.000 112.083 C 273.000 111.250,273.069 110.667,273.167 110.667 C 273.274 110.667,273.333 109.059,273.333 106.177 C 273.333 103.363,273.271 101.648,273.167 101.583 C 273.075 101.527,273.000 100.814,273.000 100.000 C 273.000 99.186,272.925 98.473,272.833 98.417 C 272.742 98.360,272.667 97.868,272.667 97.323 C 272.667 96.774,272.592 96.333,272.500 96.333 C 272.408 96.333,272.333 95.963,272.333 95.510 C 272.333 95.057,272.258 94.640,272.167 94.583 C 272.075 94.527,272.000 94.222,272.000 93.907 C 272.000 93.591,271.925 93.333,271.833 93.333 C 271.742 93.333,271.667 93.033,271.667 92.667 C 271.667 92.300,271.592 92.000,271.500 92.000 C 271.408 92.000,271.333 91.784,271.333 91.519 C 271.333 90.871,270.790 89.063,270.314 88.127 C 270.233 87.968,270.167 87.724,270.167 87.586 C 270.167 87.447,270.092 87.333,270.000 87.333 C 269.908 87.333,269.833 87.198,269.833 87.033 C 269.833 86.661,269.461 85.836,269.292 85.835 C 269.223 85.834,269.167 85.683,269.167 85.500 C 269.167 85.317,269.092 85.167,269.000 85.167 C 268.908 85.167,268.833 85.055,268.833 84.918 C 268.833 84.570,268.282 83.333,268.127 83.333 C 268.057 83.333,268.000 83.183,268.000 83.000 C 268.000 82.817,267.934 82.667,267.853 82.667 C 267.772 82.667,267.666 82.517,267.618 82.333 C 267.532 82.002,267.391 82.000,242.432 82.000 L 217.333 82.000 217.333 118.250 M339.833 118.250 L 339.833 154.500 346.157 154.500 C 350.193 154.500,352.518 154.440,352.583 154.333 C 352.640 154.242,353.202 154.167,353.833 154.167 C 354.464 154.167,355.027 154.092,355.083 154.000 C 355.140 153.908,355.552 153.833,356.000 153.833 C 356.448 153.833,356.860 153.758,356.917 153.667 C 356.973 153.575,357.315 153.500,357.677 153.500 C 358.038 153.500,358.333 153.425,358.333 153.333 C 358.333 153.242,358.591 153.167,358.907 153.167 C 359.222 153.167,359.520 153.102,359.569 153.024 C 359.617 152.945,360.040 152.836,360.507 152.780 C 361.361 152.679,362.334 152.418,362.873 152.146 C 363.032 152.066,363.313 152.000,363.498 152.000 C 363.682 152.000,363.833 151.939,363.833 151.863 C 363.833 151.788,364.208 151.625,364.667 151.500 C 365.125 151.375,365.500 151.212,365.500 151.137 C 365.500 151.061,365.688 151.000,365.917 151.000 C 366.146 151.000,366.333 150.925,366.333 150.833 C 366.333 150.742,366.483 150.667,366.667 150.667 C 366.850 150.667,367.000 150.601,367.000 150.521 C 367.000 150.441,367.231 150.329,367.513 150.272 C 368.191 150.137,370.686 148.912,371.133 148.495 C 371.327 148.315,371.602 148.167,371.743 148.167 C 371.884 148.167,372.000 148.092,372.000 148.000 C 372.000 147.908,372.145 147.833,372.321 147.833 C 372.498 147.833,372.742 147.740,372.863 147.625 C 372.984 147.510,373.288 147.311,373.539 147.182 C 373.789 147.052,374.127 146.827,374.289 146.682 C 374.451 146.536,374.790 146.310,375.042 146.180 C 375.294 146.050,375.500 145.881,375.500 145.805 C 375.500 145.729,375.578 145.667,375.674 145.667 C 375.769 145.667,375.938 145.590,376.049 145.497 C 376.808 144.857,377.066 144.667,377.179 144.667 C 377.249 144.667,377.600 144.385,377.959 144.042 C 378.318 143.698,378.822 143.267,379.079 143.083 C 379.336 142.900,379.940 142.348,380.421 141.856 C 381.438 140.814,381.656 140.596,382.856 139.412 C 383.348 138.927,383.975 138.251,384.250 137.911 C 384.525 137.571,384.994 137.042,385.292 136.735 C 385.590 136.429,385.833 136.111,385.833 136.030 C 385.833 135.949,386.021 135.680,386.250 135.432 C 386.479 135.185,386.667 134.911,386.667 134.823 C 386.667 134.735,386.892 134.428,387.167 134.140 C 387.442 133.853,387.667 133.550,387.667 133.468 C 387.667 133.386,387.818 133.157,388.003 132.958 C 388.189 132.759,388.466 132.312,388.619 131.965 C 388.772 131.618,388.958 131.333,389.032 131.333 C 389.106 131.333,389.167 131.183,389.167 131.000 C 389.167 130.817,389.242 130.667,389.333 130.667 C 389.425 130.667,389.500 130.554,389.500 130.417 C 389.500 130.279,389.575 130.167,389.667 130.167 C 389.758 130.167,389.833 130.023,389.833 129.847 C 389.833 129.672,389.896 129.503,389.973 129.472 C 390.172 129.393,391.333 126.954,391.333 126.616 C 391.333 126.460,391.408 126.333,391.500 126.333 C 391.592 126.333,391.667 126.183,391.667 126.000 C 391.667 125.817,391.742 125.667,391.833 125.667 C 391.925 125.667,392.000 125.521,392.000 125.343 C 392.000 125.165,392.075 124.973,392.167 124.917 C 392.258 124.860,392.333 124.668,392.333 124.490 C 392.333 124.312,392.408 124.167,392.500 124.167 C 392.592 124.167,392.667 123.942,392.667 123.667 C 392.667 123.392,392.742 123.167,392.833 123.167 C 392.925 123.167,393.000 123.021,393.000 122.843 C 393.000 122.665,393.075 122.473,393.167 122.417 C 393.258 122.360,393.333 122.093,393.333 121.823 C 393.333 121.554,393.403 121.333,393.488 121.333 C 393.573 121.333,393.694 120.920,393.757 120.414 C 393.821 119.909,393.939 119.455,394.019 119.405 C 394.100 119.355,394.167 119.056,394.167 118.740 C 394.167 118.425,394.242 118.167,394.333 118.167 C 394.425 118.167,394.500 117.829,394.500 117.417 C 394.500 117.004,394.575 116.667,394.667 116.667 C 394.758 116.667,394.833 116.334,394.833 115.927 C 394.833 115.519,394.908 115.140,395.000 115.083 C 395.092 115.027,395.167 114.577,395.167 114.083 C 395.167 113.590,395.242 113.140,395.333 113.083 C 395.425 113.027,395.500 112.325,395.500 111.523 C 395.500 110.722,395.578 109.989,395.673 109.894 C 395.978 109.589,395.647 99.089,395.322 98.758 C 395.237 98.671,395.167 98.169,395.167 97.643 C 395.167 97.117,395.092 96.640,395.000 96.583 C 394.908 96.527,394.833 96.110,394.833 95.657 C 394.833 95.204,394.758 94.833,394.667 94.833 C 394.575 94.833,394.500 94.533,394.500 94.167 C 394.500 93.800,394.425 93.500,394.333 93.500 C 394.242 93.500,394.167 93.242,394.167 92.927 C 394.167 92.611,394.099 92.311,394.016 92.260 C 393.934 92.209,393.814 91.717,393.750 91.167 C 393.686 90.617,393.566 90.167,393.484 90.167 C 393.401 90.167,393.333 89.942,393.333 89.667 C 393.333 89.392,393.258 89.167,393.167 89.167 C 393.075 89.167,393.000 88.979,393.000 88.750 C 393.000 88.521,392.925 88.333,392.833 88.333 C 392.742 88.333,392.667 88.108,392.667 87.833 C 392.667 87.558,392.592 87.333,392.500 87.333 C 392.408 87.333,392.333 87.183,392.333 87.000 C 392.333 86.817,392.258 86.667,392.167 86.667 C 392.075 86.667,392.000 86.479,392.000 86.250 C 392.000 86.021,391.925 85.833,391.833 85.833 C 391.742 85.833,391.667 85.683,391.667 85.500 C 391.667 85.317,391.592 85.167,391.500 85.167 C 391.408 85.167,391.333 85.055,391.333 84.918 C 391.333 84.570,390.782 83.333,390.627 83.333 C 390.557 83.333,390.500 83.240,390.500 83.125 C 390.500 83.010,390.322 82.710,390.105 82.458 L 389.711 82.000 364.772 82.000 L 339.833 82.000 339.833 118.250 " stroke="none" fill="#82a8b9" fill-rule="evenodd"></path><path id="path1" d="" stroke="none" fill="#82a8b9" fill-rule="evenodd"></path></g></svg>